<?xml version="1.0" encoding="UTF-8"?>
<!DOCTYPE svg PUBLIC "-//W3C//DTD SVG 1.1//EN" "http://www.w3.org/Graphics/SVG/1.1/DTD/svg11.dtd">
<!-- Creator: CorelDRAW X7 -->
<svg xmlns="http://www.w3.org/2000/svg" xml:space="preserve" width="6.02915in" height="6.48758in" version="1.1" style="shape-rendering:geometricPrecision; text-rendering:geometricPrecision; image-rendering:optimizeQuality; fill-rule:evenodd; clip-rule:evenodd"
viewBox="0 0 7211 7759"
 xmlns:xlink="http://www.w3.org/1999/xlink">
 <defs>
  <style type="text/css">
   <![CDATA[
    .fil0 {fill:#FEFEFE}
   ]]>
  </style>
 </defs>
 <g id="Layer_x0020_1">
  <metadata id="CorelCorpID_0Corel-Layer"/>
  <polygon class="fil0" points="3605,0 652,1677 1406,2138 3617,843 5841,2126 6563,1702 "/>
  <polygon class="fil0" points="5667,2531 5670,3384 6483,2929 6473,5801 4561,6891 4561,7759 7211,6243 7211,2064 6810,1846 "/>
  <path class="fil0" d="M3605 1646l-1470 866 685 424 778 -424 1049 615 -1030 581 -3239 -1856 -378 212 0 4164 2673 1531 -3 -855 -1928 -1103 4 -2865 700 398 -3 2056 2168 1264 1794 -1047 -13 -859 -1403 817 -3 -1194 1425 -844 -12 -825 -1794 -1056zm-1413 2120l-11 1197 1053 608 0 -1201 -1042 -604z"/>
 </g>
</svg>
